<svg width="325" height="54" viewBox="0 0 325 54" fill="none" xmlns="http://www.w3.org/2000/svg">
<circle cx="26.7254" cy="26.7254" r="23.7254" stroke="#E32F2F" stroke-width="6"/>
<path d="M24.3672 40.6227V12.8282H29.0838V40.6227H24.3672ZM12.8282 29.0838V24.3671H40.6227V29.0838H12.8282Z" fill="#E32F2F"/>
<path d="M68.3885 21.3803V7.01276H80.0322V21.3803H77.6277V9.26767H70.7931V21.3803H68.3885Z" fill="white"/>
<path d="M87.5879 21.6797C86.5103 21.6797 85.5691 21.4369 84.7642 20.9513C83.9594 20.4657 83.3341 19.7973 82.8885 18.9458C82.4494 18.0878 82.2299 17.1033 82.2299 15.9925C82.2299 14.8617 82.4561 13.8706 82.9084 13.0192C83.3607 12.1678 83.9893 11.5026 84.7942 11.0237C85.599 10.5448 86.5302 10.3053 87.5879 10.3053C88.6721 10.3053 89.6166 10.5481 90.4215 11.0337C91.2263 11.5193 91.8516 12.1911 92.2972 13.0491C92.7429 13.9006 92.9657 14.8817 92.9657 15.9925C92.9657 17.11 92.7396 18.0978 92.2873 18.9558C91.8416 19.8072 91.2163 20.4757 90.4115 20.9613C89.6066 21.4402 88.6654 21.6797 87.5879 21.6797ZM87.5879 19.4248C88.5457 19.4248 89.2574 19.1055 89.723 18.4669C90.1887 17.8284 90.4215 17.0036 90.4215 15.9925C90.4215 14.9482 90.1853 14.1167 89.7131 13.4981C89.2408 12.8729 88.5324 12.5602 87.5879 12.5602C86.9426 12.5602 86.4105 12.7066 85.9915 12.9993C85.5791 13.2853 85.2731 13.6877 85.0735 14.2065C84.874 14.7187 84.7742 15.314 84.7742 15.9925C84.7742 17.0368 85.0103 17.8716 85.4826 18.4969C85.9615 19.1155 86.6633 19.4248 87.5879 19.4248Z" fill="white"/>
<path d="M95.1441 21.3803V10.6047H104.503V21.3803H102.098V12.8596H97.5487V21.3803H95.1441Z" fill="white"/>
<path d="M108.721 26.1695L110.797 20.4724L110.837 22.1486L106.137 10.6047H108.642L111.974 19.1454H111.336L114.578 10.6047H116.983L110.976 26.1695H108.721Z" fill="white"/>
<path d="M117.083 21.3803V19.3649C117.476 19.4381 117.778 19.4314 117.991 19.3449C118.204 19.2518 118.364 19.0789 118.47 18.8261C118.577 18.5733 118.67 18.2374 118.75 17.8184C118.856 17.2264 118.949 16.5446 119.029 15.773C119.115 15.0014 119.189 14.1766 119.248 13.2986C119.315 12.4206 119.375 11.5226 119.428 10.6047H127.36V21.3803H124.966V12.8596H121.543C121.51 13.2919 121.47 13.7775 121.424 14.3163C121.377 14.8484 121.327 15.3872 121.274 15.9326C121.221 16.4781 121.161 16.9969 121.094 17.4891C121.034 17.9747 120.971 18.3904 120.905 18.7363C120.752 19.5146 120.532 20.1298 120.246 20.5821C119.967 21.0345 119.574 21.3238 119.069 21.4502C118.563 21.5832 117.902 21.5599 117.083 21.3803Z" fill="white"/>
<path d="M136.609 21.3803V17.7884H134.683C134.437 17.7884 134.128 17.7818 133.755 17.7685C133.389 17.7552 133.047 17.7219 132.727 17.6687C131.896 17.5157 131.208 17.1532 130.662 16.5812C130.117 16.0025 129.844 15.2176 129.844 14.2265C129.844 13.2553 130.103 12.4738 130.622 11.8818C131.141 11.2898 131.816 10.9106 132.648 10.7443C132.993 10.6712 133.349 10.6313 133.715 10.6246C134.088 10.6113 134.397 10.6047 134.643 10.6047H139.013V21.3803H136.609ZM129.565 21.3803L132.139 17.2596H134.643L132.089 21.3803H129.565ZM134.434 15.9027H136.609V12.4904H134.434C134.307 12.4904 134.154 12.4971 133.975 12.5104C133.795 12.5237 133.615 12.5536 133.436 12.6002C133.243 12.66 133.06 12.7631 132.887 12.9095C132.714 13.0558 132.571 13.2387 132.458 13.4582C132.345 13.6777 132.288 13.9272 132.288 14.2065C132.288 14.6256 132.408 14.9748 132.648 15.2542C132.894 15.5269 133.18 15.7098 133.506 15.8029C133.665 15.8428 133.828 15.8694 133.995 15.8827C134.168 15.8961 134.314 15.9027 134.434 15.9027Z" fill="white"/>
<path d="M146.975 21.6797C145.924 21.6797 145.043 21.4302 144.331 20.9314C143.62 20.4325 143.084 19.754 142.725 18.8959C142.366 18.0312 142.186 17.0634 142.186 15.9925C142.186 14.9083 142.366 13.9371 142.725 13.0791C143.084 12.221 143.61 11.5459 144.301 11.0536C145 10.5548 145.861 10.3053 146.886 10.3053C147.903 10.3053 148.785 10.5548 149.53 11.0536C150.281 11.5459 150.863 12.221 151.276 13.0791C151.688 13.9305 151.894 14.9016 151.894 15.9925C151.894 17.0701 151.691 18.0379 151.286 18.8959C150.88 19.754 150.308 20.4325 149.57 20.9314C148.831 21.4302 147.967 21.6797 146.975 21.6797ZM141.777 26.1695V10.6047H143.902V18.1676H144.202V26.1695H141.777ZM146.606 19.5245C147.232 19.5245 147.747 19.3682 148.153 19.0556C148.559 18.743 148.858 18.3206 149.051 17.7884C149.25 17.2497 149.35 16.651 149.35 15.9925C149.35 15.3406 149.25 14.7486 149.051 14.2165C148.851 13.6777 148.542 13.252 148.123 12.9394C147.704 12.6201 147.172 12.4605 146.526 12.4605C145.915 12.4605 145.416 12.6101 145.03 12.9095C144.644 13.2021 144.358 13.6145 144.172 14.1467C143.992 14.6721 143.902 15.2874 143.902 15.9925C143.902 16.6909 143.992 17.3062 144.172 17.8383C144.358 18.3705 144.647 18.7862 145.04 19.0855C145.439 19.3782 145.961 19.5245 146.606 19.5245Z" fill="white"/>
<path d="M154.074 21.3803V10.6047H156.478V14.8551H161.317V10.6047H163.722V21.3803H161.317V17.11H156.478V21.3803H154.074Z" fill="white"/>
<path d="M169.52 21.6797C168.742 21.6797 168.083 21.5333 167.545 21.2407C167.006 20.9413 166.597 20.5456 166.317 20.0533C166.045 19.5611 165.908 19.019 165.908 18.427C165.908 17.9082 165.995 17.4426 166.168 17.0302C166.341 16.6111 166.607 16.2519 166.966 15.9526C167.325 15.6466 167.791 15.3972 168.363 15.2043C168.795 15.0646 169.301 14.9382 169.879 14.8251C170.465 14.7121 171.097 14.609 171.775 14.5158C172.46 14.4161 173.175 14.3096 173.92 14.1966L173.062 14.6854C173.069 13.9405 172.903 13.3917 172.563 13.0392C172.224 12.6866 171.652 12.5104 170.847 12.5104C170.362 12.5104 169.893 12.6234 169.44 12.8496C168.988 13.0757 168.672 13.4649 168.493 14.017L166.297 13.3285C166.564 12.4172 167.069 11.6855 167.814 11.1335C168.566 10.5814 169.577 10.3053 170.847 10.3053C171.805 10.3053 172.646 10.4616 173.372 10.7743C174.103 11.0869 174.645 11.5991 174.998 12.3108C175.191 12.6899 175.307 13.0791 175.347 13.4782C175.387 13.8706 175.407 14.2997 175.407 14.7653V21.3803H173.302V19.0456L173.651 19.4248C173.165 20.203 172.597 20.775 171.945 21.1409C171.3 21.5001 170.491 21.6797 169.52 21.6797ZM169.999 19.764C170.545 19.764 171.01 19.6675 171.396 19.4746C171.782 19.2817 172.088 19.0456 172.314 18.7662C172.547 18.4869 172.703 18.2241 172.783 17.978C172.909 17.672 172.979 17.3228 172.992 16.9304C173.012 16.5313 173.022 16.2087 173.022 15.9626L173.761 16.1821C173.036 16.2951 172.414 16.3949 171.895 16.4814C171.376 16.5679 170.93 16.651 170.558 16.7308C170.185 16.804 169.856 16.8871 169.57 16.9803C169.291 17.08 169.055 17.1965 168.862 17.3295C168.669 17.4625 168.519 17.6155 168.413 17.7884C168.313 17.9614 168.263 18.1643 168.263 18.3971C168.263 18.6631 168.33 18.8993 168.463 19.1055C168.596 19.305 168.789 19.4647 169.041 19.5844C169.301 19.7041 169.62 19.764 169.999 19.764Z" fill="white"/>
<path d="M184.45 21.3803V17.7884H182.524C182.278 17.7884 181.969 17.7818 181.596 17.7685C181.231 17.7552 180.888 17.7219 180.569 17.6687C179.737 17.5157 179.049 17.1532 178.503 16.5812C177.958 16.0025 177.685 15.2176 177.685 14.2265C177.685 13.2553 177.945 12.4738 178.463 11.8818C178.982 11.2898 179.657 10.9106 180.489 10.7443C180.835 10.6712 181.191 10.6313 181.556 10.6246C181.929 10.6113 182.238 10.6047 182.484 10.6047H186.855V21.3803H184.45ZM177.406 21.3803L179.98 17.2596H182.484L179.93 21.3803H177.406ZM182.275 15.9027H184.45V12.4904H182.275C182.148 12.4904 181.996 12.4971 181.816 12.5104C181.636 12.5237 181.457 12.5536 181.277 12.6002C181.084 12.66 180.901 12.7631 180.728 12.9095C180.555 13.0558 180.412 13.2387 180.299 13.4582C180.186 13.6777 180.13 13.9272 180.13 14.2065C180.13 14.6256 180.249 14.9748 180.489 15.2542C180.735 15.5269 181.021 15.7098 181.347 15.8029C181.507 15.8428 181.67 15.8694 181.836 15.8827C182.009 15.8961 182.155 15.9027 182.275 15.9027Z" fill="white"/>
<path d="M193.613 21.3803V10.6047H195.589L199.45 18.0479L203.321 10.6047H205.287V21.3803H202.992V15.4437L199.929 21.3803H198.981L195.918 15.4437V21.3803H193.613Z" fill="white"/>
<path d="M212.972 21.6797C211.881 21.6797 210.924 21.4435 210.099 20.9713C209.274 20.499 208.629 19.8438 208.163 19.0057C207.704 18.1676 207.475 17.2031 207.475 16.1122C207.475 14.9349 207.701 13.9139 208.153 13.0491C208.606 12.1778 209.234 11.5026 210.039 11.0237C210.844 10.5448 211.775 10.3053 212.833 10.3053C213.95 10.3053 214.898 10.5681 215.676 11.0936C216.461 11.6124 217.043 12.3474 217.422 13.2986C217.801 14.2498 217.944 15.3706 217.851 16.661H215.467V15.783C215.46 14.6123 215.254 13.7575 214.848 13.2188C214.442 12.68 213.804 12.4106 212.932 12.4106C211.948 12.4106 211.216 12.7166 210.737 13.3285C210.258 13.9338 210.019 14.8218 210.019 15.9925C210.019 17.0834 210.258 17.9281 210.737 18.5268C211.216 19.1254 211.915 19.4248 212.833 19.4248C213.425 19.4248 213.934 19.295 214.359 19.0356C214.792 18.7696 215.124 18.3871 215.357 17.8882L217.732 18.6066C217.319 19.5777 216.681 20.3327 215.816 20.8715C214.958 21.4103 214.01 21.6797 212.972 21.6797ZM209.261 16.661V14.8451H216.674V16.661H209.261Z" fill="white"/>
<path d="M219.279 23.7749V19.4946C219.865 19.4946 220.28 19.295 220.527 18.8959C220.773 18.4969 220.969 17.8051 221.115 16.8206C221.208 16.2353 221.285 15.6167 221.345 14.9648C221.405 14.313 221.454 13.6245 221.494 12.8995C221.541 12.1744 221.581 11.4095 221.614 10.6047H229.636V19.4946H230.724V23.7749H228.449V21.3803H221.544V23.7749H219.279ZM222.502 19.4946H227.241V12.4904H223.719C223.699 12.8895 223.676 13.2986 223.65 13.7176C223.623 14.13 223.593 14.5424 223.56 14.9548C223.526 15.3672 223.49 15.763 223.45 16.1422C223.417 16.5147 223.377 16.8605 223.33 17.1798C223.257 17.7386 223.167 18.1975 223.061 18.5567C222.954 18.9159 222.768 19.2285 222.502 19.4946Z" fill="white"/>
<path d="M242.064 10.6047V21.3803H239.759V14.3462L234.631 21.3803H232.705V10.6047H235.01V17.4592L240.158 10.6047H242.064Z" fill="white"/>
<path d="M253.885 23.6452V21.3803H244.845V10.6047H247.25V19.1254H251.8V10.6047H254.204V19.2452H256.29V23.6452H253.885Z" fill="white"/>
<path d="M267.222 10.6047V21.3803H264.917V14.3462L259.789 21.3803H257.863V10.6047H260.168V17.4592L265.316 10.6047H267.222Z" fill="white"/>
<path d="M270.004 21.3803V10.6047H272.408V14.8551H277.247V10.6047H279.652V21.3803H277.247V17.11H272.408V21.3803H270.004Z" fill="white"/>
<path d="M287.116 21.6797C286.006 21.6797 285.058 21.4336 284.273 20.9413C283.488 20.4425 282.886 19.764 282.467 18.9059C282.054 18.0479 281.845 17.0767 281.838 15.9925C281.845 14.8883 282.061 13.9105 282.487 13.0591C282.919 12.2011 283.531 11.5292 284.323 11.0437C285.114 10.5514 286.055 10.3053 287.146 10.3053C288.37 10.3053 289.405 10.6146 290.249 11.2332C291.101 11.8452 291.656 12.6833 291.916 13.7476L289.521 14.3961C289.335 13.8174 289.025 13.3684 288.593 13.0491C288.161 12.7232 287.668 12.5602 287.116 12.5602C286.491 12.5602 285.976 12.7099 285.57 13.0092C285.164 13.3019 284.865 13.7077 284.672 14.2265C284.479 14.7453 284.383 15.334 284.383 15.9925C284.383 17.0169 284.612 17.845 285.071 18.4769C285.53 19.1088 286.212 19.4248 287.116 19.4248C287.755 19.4248 288.257 19.2784 288.623 18.9857C288.995 18.6931 289.275 18.2707 289.461 17.7186L291.916 18.2674C291.583 19.3649 291.001 20.2097 290.169 20.8017C289.338 21.387 288.32 21.6797 287.116 21.6797Z" fill="white"/>
<path d="M293.895 21.3803L293.915 10.6047H296.349V15.7929L300.291 10.6047H303.294L299.113 15.9925L303.653 21.3803H300.47L296.349 16.192V21.3803H293.895Z" fill="white"/>
<path d="M307.666 21.6797C306.887 21.6797 306.229 21.5333 305.69 21.2407C305.151 20.9413 304.742 20.5456 304.463 20.0533C304.19 19.5611 304.054 19.019 304.054 18.427C304.054 17.9082 304.14 17.4426 304.313 17.0302C304.486 16.6111 304.752 16.2519 305.111 15.9526C305.471 15.6466 305.936 15.3972 306.508 15.2043C306.941 15.0646 307.446 14.9382 308.025 14.8251C308.61 14.7121 309.242 14.609 309.921 14.5158C310.606 14.4161 311.321 14.3096 312.066 14.1966L311.208 14.6854C311.214 13.9405 311.048 13.3917 310.709 13.0392C310.369 12.6866 309.797 12.5104 308.993 12.5104C308.507 12.5104 308.038 12.6234 307.586 12.8496C307.133 13.0757 306.818 13.4649 306.638 14.017L304.443 13.3285C304.709 12.4172 305.214 11.6855 305.959 11.1335C306.711 10.5814 307.722 10.3053 308.993 10.3053C309.95 10.3053 310.792 10.4616 311.517 10.7743C312.249 11.0869 312.791 11.5991 313.143 12.3108C313.336 12.6899 313.453 13.0791 313.492 13.4782C313.532 13.8706 313.552 14.2997 313.552 14.7653V21.3803H311.447V19.0456L311.796 19.4248C311.311 20.203 310.742 20.775 310.09 21.1409C309.445 21.5001 308.637 21.6797 307.666 21.6797ZM308.145 19.764C308.69 19.764 309.156 19.6675 309.541 19.4746C309.927 19.2817 310.233 19.0456 310.459 18.7662C310.692 18.4869 310.848 18.2241 310.928 17.978C311.055 17.672 311.124 17.3228 311.138 16.9304C311.158 16.5313 311.168 16.2087 311.168 15.9626L311.906 16.1821C311.181 16.2951 310.559 16.3949 310.04 16.4814C309.521 16.5679 309.076 16.651 308.703 16.7308C308.331 16.804 308.002 16.8871 307.715 16.9803C307.436 17.08 307.2 17.1965 307.007 17.3295C306.814 17.4625 306.665 17.6155 306.558 17.7884C306.458 17.9614 306.408 18.1643 306.408 18.3971C306.408 18.6631 306.475 18.8993 306.608 19.1055C306.741 19.305 306.934 19.4647 307.187 19.5844C307.446 19.7041 307.765 19.764 308.145 19.764Z" fill="white"/>
<path d="M322.595 21.3803V17.7884H320.67C320.424 17.7884 320.114 17.7818 319.742 17.7685C319.376 17.7552 319.033 17.7219 318.714 17.6687C317.883 17.5157 317.194 17.1532 316.649 16.5812C316.103 16.0025 315.831 15.2176 315.831 14.2265C315.831 13.2553 316.09 12.4738 316.609 11.8818C317.128 11.2898 317.803 10.9106 318.634 10.7443C318.98 10.6712 319.336 10.6313 319.702 10.6246C320.074 10.6113 320.384 10.6047 320.63 10.6047H325V21.3803H322.595ZM315.551 21.3803L318.125 17.2596H320.63L318.076 21.3803H315.551ZM320.42 15.9027H322.595V12.4904H320.42C320.294 12.4904 320.141 12.4971 319.961 12.5104C319.782 12.5237 319.602 12.5536 319.423 12.6002C319.23 12.66 319.047 12.7631 318.874 12.9095C318.701 13.0558 318.558 13.2387 318.445 13.4582C318.332 13.6777 318.275 13.9272 318.275 14.2065C318.275 14.6256 318.395 14.9748 318.634 15.2542C318.88 15.5269 319.166 15.7098 319.492 15.8029C319.652 15.8428 319.815 15.8694 319.981 15.8827C320.154 15.8961 320.301 15.9027 320.42 15.9027Z" fill="white"/>
<path d="M72.4194 48.7614C71.2221 48.7614 70.2077 48.4688 69.3763 47.8834C68.5448 47.2914 67.9595 46.4467 67.6202 45.3491L70.0747 44.8004C70.2609 45.3525 70.537 45.7748 70.9028 46.0675C71.2753 46.3602 71.7809 46.5065 72.4194 46.5065C73.1777 46.5065 73.7797 46.2804 74.2253 45.8281C74.671 45.3757 74.9504 44.7704 75.0634 44.0121H71.4815V42.1264H75.0634C74.957 41.408 74.691 40.816 74.2652 40.3504C73.8395 39.8781 73.2475 39.642 72.4893 39.642C71.9039 39.642 71.3917 39.7983 70.9527 40.111C70.5204 40.4236 70.2077 40.8792 70.0148 41.4779L67.6202 40.8293C67.8797 39.7651 68.4317 38.927 69.2765 38.315C70.1279 37.6964 71.1689 37.3871 72.3995 37.3871C73.4837 37.3871 74.4216 37.6332 75.2131 38.1254C76.0113 38.611 76.6233 39.2828 77.049 40.1409C77.4813 40.9989 77.6975 41.9834 77.6975 43.0942C77.6975 44.1784 77.488 45.1496 77.0689 46.0076C76.6499 46.8591 76.0446 47.5309 75.253 48.0231C74.4681 48.5153 73.5236 48.7614 72.4194 48.7614Z" fill="white"/>
<path d="M79.8661 48.4621V37.6864H82.2706V41.9368H87.1097V37.6864H89.5143V48.4621H87.1097V44.1917H82.2706V48.4621H79.8661Z" fill="white"/>
<path d="M101.319 50.727V48.4621H92.2795V37.6864H94.684V46.2072H99.2338V37.6864H101.638V46.3269H103.724V50.727H101.319Z" fill="white"/>
<path d="M114.656 37.6864V48.4621H112.351V41.428L107.223 48.4621H105.297V37.6864H107.602V44.541L112.75 37.6864H114.656Z" fill="white"/>
<path d="M117.438 48.4621L117.458 37.6864H119.892V42.8747L123.833 37.6864H126.836L122.656 43.0743L127.196 48.4621H124.013L119.892 43.2738V48.4621H117.438Z" fill="white"/>
<path d="M127.002 48.4621V46.4467C127.395 46.5198 127.697 46.5132 127.91 46.4267C128.123 46.3336 128.283 46.1606 128.389 45.9079C128.496 45.6551 128.589 45.3192 128.669 44.9001C128.775 44.3081 128.868 43.6264 128.948 42.8548C129.034 42.0832 129.108 41.2584 129.167 40.3803C129.234 39.5023 129.294 38.6043 129.347 37.6864H137.279V48.4621H134.885V39.9413H131.462C131.429 40.3737 131.389 40.8593 131.343 41.398C131.296 41.9302 131.246 42.469 131.193 43.0144C131.14 43.5598 131.08 44.0787 131.013 44.5709C130.953 45.0565 130.89 45.4722 130.824 45.8181C130.671 46.5963 130.451 47.2116 130.165 47.6639C129.886 48.1162 129.493 48.4056 128.988 48.532C128.482 48.665 127.821 48.6417 127.002 48.4621Z" fill="white"/>
<path d="M144.842 48.7614C143.764 48.7614 142.823 48.5187 142.018 48.0331C141.213 47.5475 140.588 46.879 140.142 46.0276C139.703 45.1695 139.484 44.1851 139.484 43.0743C139.484 41.9435 139.71 40.9524 140.162 40.101C140.614 39.2496 141.243 38.5844 142.048 38.1055C142.853 37.6266 143.784 37.3871 144.842 37.3871C145.926 37.3871 146.87 37.6299 147.675 38.1154C148.48 38.601 149.105 39.2728 149.551 40.1309C149.997 40.9823 150.219 41.9634 150.219 43.0743C150.219 44.1917 149.993 45.1795 149.541 46.0376C149.095 46.889 148.47 47.5575 147.665 48.0431C146.86 48.522 145.919 48.7614 144.842 48.7614ZM144.842 46.5065C145.799 46.5065 146.511 46.1872 146.977 45.5487C147.442 44.9101 147.675 44.0853 147.675 43.0743C147.675 42.03 147.439 41.1985 146.967 40.5799C146.494 39.9546 145.786 39.642 144.842 39.642C144.196 39.642 143.664 39.7883 143.245 40.081C142.833 40.367 142.527 40.7695 142.327 41.2883C142.128 41.8005 142.028 42.3958 142.028 43.0743C142.028 44.1186 142.264 44.9534 142.736 45.5786C143.215 46.1972 143.917 46.5065 144.842 46.5065Z" fill="white"/>
<path d="M152.398 48.4621V37.6864H161.757V48.4621H159.352V39.9413H154.802V48.4621H152.398Z" fill="white"/>
<path d="M169.457 48.7614C168.366 48.7614 167.409 48.5253 166.584 48.053C165.759 47.5808 165.114 46.9256 164.648 46.0875C164.189 45.2494 163.96 44.2849 163.96 43.194C163.96 42.0167 164.186 40.9956 164.638 40.1309C165.09 39.2595 165.719 38.5844 166.524 38.1055C167.329 37.6266 168.26 37.3871 169.318 37.3871C170.435 37.3871 171.383 37.6498 172.161 38.1753C172.946 38.6941 173.528 39.4292 173.907 40.3803C174.286 41.3315 174.429 42.4523 174.336 43.7428H171.952V42.8647C171.945 41.694 171.739 40.8393 171.333 40.3005C170.927 39.7617 170.289 39.4923 169.417 39.4923C168.433 39.4923 167.701 39.7983 167.222 40.4103C166.743 41.0156 166.504 41.9036 166.504 43.0743C166.504 44.1651 166.743 45.0099 167.222 45.6085C167.701 46.2072 168.4 46.5065 169.318 46.5065C169.91 46.5065 170.418 46.3768 170.844 46.1174C171.276 45.8513 171.609 45.4689 171.842 44.97L174.216 45.6884C173.804 46.6595 173.166 47.4145 172.301 47.9533C171.443 48.492 170.495 48.7614 169.457 48.7614ZM165.746 43.7428V41.9269H173.159V43.7428H165.746Z" fill="white"/>
<path d="M175.764 50.8567V46.5764C176.35 46.5764 176.765 46.3768 177.011 45.9777C177.258 45.5786 177.454 44.8868 177.6 43.9024C177.693 43.3171 177.77 42.6984 177.83 42.0466C177.889 41.3947 177.939 40.7063 177.979 39.9812C178.026 39.2562 178.066 38.4913 178.099 37.6864H186.121V46.5764H187.208V50.8567H184.934V48.4621H178.029V50.8567H175.764ZM178.987 46.5764H183.726V39.5722H180.204C180.184 39.9713 180.161 40.3803 180.134 40.7994C180.108 41.2118 180.078 41.6242 180.045 42.0366C180.011 42.449 179.975 42.8448 179.935 43.2239C179.902 43.5964 179.862 43.9423 179.815 44.2616C179.742 44.8203 179.652 45.2793 179.546 45.6385C179.439 45.9977 179.253 46.3103 178.987 46.5764Z" fill="white"/>
<path d="M198.549 37.6864V48.4621H196.244V41.428L191.115 48.4621H189.19V37.6864H191.495V44.541L196.643 37.6864H198.549Z" fill="white"/>
<path d="M207.796 48.4621V44.8702H205.87C205.624 44.8702 205.315 44.8636 204.942 44.8503C204.576 44.837 204.234 44.8037 203.914 44.7505C203.083 44.5975 202.395 44.235 201.849 43.6629C201.304 43.0842 201.031 42.2993 201.031 41.3083C201.031 40.3371 201.29 39.5555 201.809 38.9635C202.328 38.3715 203.003 37.9924 203.835 37.8261C204.181 37.7529 204.536 37.713 204.902 37.7064C205.275 37.6931 205.584 37.6864 205.83 37.6864H210.2V48.4621H207.796ZM200.752 48.4621L203.326 44.3414H205.83L203.276 48.4621H200.752ZM205.621 42.9845H207.796V39.5722H205.621C205.494 39.5722 205.341 39.5788 205.162 39.5921C204.982 39.6054 204.802 39.6354 204.623 39.6819C204.43 39.7418 204.247 39.8449 204.074 39.9912C203.901 40.1376 203.758 40.3205 203.645 40.54C203.532 40.7595 203.475 41.0089 203.475 41.2883C203.475 41.7073 203.595 42.0566 203.835 42.3359C204.081 42.6086 204.367 42.7916 204.693 42.8847C204.852 42.9246 205.015 42.9512 205.182 42.9645C205.355 42.9778 205.501 42.9845 205.621 42.9845Z" fill="white"/>
</svg>
